<svg width="512" height="512" viewBox="0 0 512 512" fill="none" xmlns="http://www.w3.org/2000/svg">
<path d="M22.5279 163.103L270.152 19.2002L258.324 12.3804L10.7109 156.263L22.5279 163.103Z" fill="#FE91AB"/>
<path d="M289.423 234.291C278.507 227.984 269.66 212.644 269.701 200.131L270.08 19.2515L185.846 68.1987L22.5277 163.093L22.0772 344.003C22.0567 356.547 30.9041 371.886 41.8199 378.174C47.3188 381.358 52.2954 381.645 55.8999 379.556L303.503 235.653C299.899 237.742 294.902 237.456 289.413 234.302L289.423 234.291Z" fill="#ED5D71"/>
<path d="M32.4196 169.943L65.8634 189.246L68.3006 190.659V382.362C65.0647 382.167 61.5012 381.061 57.7533 378.901C43.5402 370.668 31.9998 350.71 32.051 334.387L32.4196 169.943Z" fill="#E3E7F0"/>
<path d="M321.567 48.896L321.116 229.806C321.075 239.739 317.563 246.774 311.869 250.061L64.2661 393.963C69.9493 390.646 73.4616 383.642 73.5128 373.688L73.9532 192.768L321.567 48.896Z" fill="#ED5D71"/>
<path d="M64.2561 188.334L296.704 53.248L264.878 34.8569L32.4302 169.953L64.2561 188.334Z" fill="white"/>
<path d="M10.711 156.263L10.2604 337.183C10.2092 357.212 24.3404 381.707 41.7791 391.772C59.2178 401.838 73.4412 393.718 73.5026 373.699L73.9532 192.779L62.126 185.959L61.6754 366.869C61.6447 379.403 52.7359 384.482 41.8098 378.184C30.9042 371.886 22.0466 356.547 22.0876 344.013L22.5279 163.103L10.711 156.263Z" fill="#D3374E"/>
<path d="M73.9532 192.778L321.556 48.8858L309.729 42.0659L62.126 185.958L73.9532 192.778Z" fill="#FE91AB"/>
<path d="M321.628 19.2207L262.748 53.4428L237.322 97.8434L321.567 48.8962L321.628 19.2207Z" fill="#ED5D71"/>
<path d="M262.758 53.4429L237.333 97.8333L225.516 91.0134L250.931 46.6128L262.758 53.4429Z" fill="#D3374E"/>
<path d="M262.758 53.4428L321.628 19.2412L309.801 12.4111L250.931 46.6127L262.758 53.4428Z" fill="#FE91AB"/>
<path d="M112.589 214.866L360.192 70.9634L348.375 64.1436L100.762 208.036L112.589 214.866Z" fill="#FFDD94"/>
<path d="M379.474 286.065C368.558 279.747 359.711 264.407 359.752 251.894L360.141 71.0044L275.896 119.952L112.589 214.856L112.148 395.766C112.128 408.3 120.975 423.65 131.891 429.937C137.38 433.122 142.367 433.408 145.961 431.319L393.564 287.417C389.98 289.506 384.963 289.219 379.474 286.055V286.065Z" fill="#FEBB61"/>
<path d="M122.47 221.707L155.914 241.009L158.351 242.422V434.125C155.126 433.931 151.562 432.825 147.804 430.664C133.591 422.431 122.051 402.473 122.102 386.151L122.47 221.707Z" fill="#E3E7F0"/>
<path d="M411.617 100.659L411.177 281.569C411.126 291.502 407.614 298.537 401.93 301.824L154.317 445.727C160.01 442.409 163.523 435.415 163.564 425.451L164.014 244.531L411.617 100.659Z" fill="#FEBB61"/>
<path d="M154.317 240.098L386.765 105.012L354.928 86.6206L122.48 221.707L154.317 240.098Z" fill="white"/>
<path d="M100.761 208.036L100.321 388.946C100.26 408.976 114.401 433.47 131.84 443.536C149.268 453.602 163.502 445.481 163.563 425.452L164.004 244.542L152.187 237.722L151.736 418.632C151.695 431.166 142.786 436.245 131.87 429.947C120.955 423.65 112.107 408.31 112.138 395.776L112.589 214.856L100.761 208.036Z" fill="#EFA143"/>
<path d="M164.004 244.541L411.607 100.659L399.79 93.8394L152.187 237.732L164.004 244.541Z" fill="#FFDD94"/>
<path d="M411.678 70.9839L352.798 105.206L327.383 149.607L411.617 100.659L411.678 70.9839Z" fill="#FEBB61"/>
<path d="M352.819 105.206L327.393 149.596L315.566 142.777L340.992 98.376L352.819 105.206Z" fill="#EFA143"/>
<path d="M352.819 105.206L411.678 71.0044L399.861 64.1641L340.981 98.3759L352.819 105.206Z" fill="#FFDD94"/>
<path d="M202.649 266.619L450.253 122.727L438.436 115.907L190.833 259.799L202.649 266.619Z" fill="#7BB1FF"/>
<path d="M469.534 337.818C458.619 331.51 449.771 316.17 449.812 303.657L450.191 122.768L365.957 171.715L202.649 266.609L202.199 447.529C202.178 460.063 211.026 475.413 221.941 481.7C227.44 484.874 232.417 485.171 236.021 483.082L483.625 339.18C480.03 341.269 475.023 340.982 469.534 337.818Z" fill="#5793FB"/>
<path d="M212.531 273.47L245.975 292.772L248.412 294.185V485.888C245.186 485.694 241.613 484.588 237.865 482.427C223.652 474.194 212.111 454.226 212.162 437.914L212.531 273.47Z" fill="#E3E7F0"/>
<path d="M501.678 152.423L501.227 333.333C501.186 343.266 497.674 350.301 491.981 353.588L244.377 497.49C250.061 494.173 253.583 487.168 253.624 477.215L254.064 296.295L501.678 152.423Z" fill="#5793FB"/>
<path d="M421.673 353.485L481.956 318.464C481.956 318.464 481.925 330.332 481.935 331.08L421.622 366.131L421.673 353.485ZM421.673 329.656L481.956 294.625C481.956 294.625 481.925 306.504 481.935 307.241L421.622 342.293L421.673 329.656ZM421.673 305.818L481.956 270.797C481.956 270.797 481.925 282.655 481.935 283.402L421.622 318.464L421.673 305.818Z" fill="#E3E7F0"/>
<path d="M244.378 291.861L476.826 156.765L444.979 138.384L212.531 273.47L244.378 291.861Z" fill="white"/>
<path d="M190.822 259.789L190.372 440.709C190.321 460.739 204.452 485.233 221.89 495.289C239.329 505.365 253.563 497.255 253.614 477.225L254.065 296.305L242.237 289.485L241.787 470.395C241.756 482.929 232.847 488.008 221.921 481.71C210.995 475.413 202.158 460.073 202.199 447.539L202.649 266.619L190.822 259.789Z" fill="#3A53D0"/>
<path d="M254.065 296.305L501.668 152.413L489.851 145.593L242.248 289.485L254.065 296.305Z" fill="#7BB1FF"/>
<path d="M501.74 122.747L442.86 156.969L417.444 201.37L501.678 152.423L501.74 122.747Z" fill="#5793FB"/>
<path d="M442.88 156.969L417.454 201.36L405.627 194.54L431.053 150.139L442.88 156.969Z" fill="#3A53D0"/>
<path d="M442.88 156.969L501.739 122.768L489.912 115.927L431.053 150.139L442.88 156.969Z" fill="#7BB1FF"/>
</svg>
