<svg width="512" height="512" viewBox="0 0 512 512" fill="none" xmlns="http://www.w3.org/2000/svg">
<g clip-path="url(#clip0_224_56)">
<path d="M465.448 75.039V155.619H340.315V75.2013C376.799 74.5011 392.246 60.0595 404.901 49.2411C411.396 43.6897 421.18 45.0192 426.163 51.9507C433.175 61.6935 445.496 73.1006 465.448 75.039Z" fill="#4E5A61"/>
<path d="M418.603 135.513L438.67 140.591L461.688 150.059C465.101 151.463 468.067 153.771 470.267 156.735C472.466 159.698 473.815 163.206 474.17 166.879L476.31 189.039C477.176 197.997 469.911 202.791 460.911 202.771L350.163 202.213C341.216 202.193 334.217 194.497 335.04 185.588L337.065 163.472C337.76 155.953 346.196 155.076 353.18 152.204L382.048 134.033L418.603 135.513Z" fill="#D5717F"/>
<path d="M352.115 190.46C347.621 190.46 344.1 186.595 344.516 182.121L345.8 168.325C345.886 167.405 346.223 166.525 346.774 165.783C347.325 165.04 348.069 164.463 348.925 164.114L379.342 151.606C380.973 150.932 382.789 150.85 384.474 151.373C389.967 153.091 395.689 153.965 401.445 153.966C415.125 153.966 427.882 149.085 438.67 140.59L422.726 134.034H382.04L364.889 141.087L364.89 141.089L343.131 150.039C339.706 151.448 336.732 153.767 334.531 156.746C332.331 159.724 330.988 163.249 330.648 166.936L328.618 189.06C327.796 197.971 334.798 205.663 343.739 205.684L461.119 205.724C469.634 205.745 476.413 198.813 476.382 190.471L352.115 190.46Z" fill="#CD5668"/>
<path d="M353.179 63.7728C354.395 103.031 369.415 135.359 399.015 135.359C402.483 135.359 409.326 138.306 412.616 137.484C437.449 131.276 456.412 102.713 457.427 67.9744L404.397 24.2275L353.179 63.7728Z" fill="#F7E5C1"/>
<path d="M412.613 137.474C409.325 138.306 405.935 138.732 402.464 138.732C372.861 138.732 348.727 107.413 347.509 68.1483L368.636 57.9712L368.436 60.4292C367.747 68.88 368.147 77.4079 369.948 85.6933C375.69 112.097 392.158 132.366 412.613 137.474Z" fill="#F4D9B1"/>
<path d="M401.887 471L408.214 485.813L402.506 506.003L303.013 506.154C297.411 506.154 292.864 501.608 292.864 496.006L293.425 481.149C293.425 475.547 297.972 471.001 303.574 471.001H401.887V471Z" fill="#BED9FD"/>
<path d="M183.468 272.715L188.7 290.398L183.468 307.327L19.5852 306.875C13.9831 306.875 9.43652 302.329 9.43652 296.727L10.7751 282.864C10.7751 277.261 15.3217 272.715 20.9238 272.715H23.8497H183.468Z" fill="#94D4A2"/>
<path d="M227.838 282.864V293.682L225.97 296.727C225.97 302.329 221.424 306.875 215.822 306.875L183.468 309.92V272.715H217.689C223.291 272.715 227.838 277.261 227.838 282.864Z" fill="#F5FCFF"/>
<path d="M401.887 272.715L409.499 290.182L401.887 308.449L303.402 307.931C297.8 307.931 293.253 303.384 293.253 297.782L293.555 284.221C293.555 278.619 298.102 274.073 303.704 274.073L308.012 272.714H401.887V272.715Z" fill="#94D4A2"/>
<path d="M512 282.864V293.682L509.442 295.839C509.442 301.441 504.895 305.987 499.293 305.987L401.887 309.92V272.715H501.852C507.454 272.715 512 277.261 512 282.864Z" fill="#F5FCFF"/>
<path d="M183.467 293.682L189.91 301.801L183.467 309.92H17.76C12.1579 309.92 7.61133 305.373 7.61133 299.771V282.864C7.61133 277.261 12.1579 272.715 17.76 272.715H23.8492V283.533C23.8492 289.135 28.3958 293.682 33.9979 293.682H183.467Z" fill="#7FCB8F"/>
<path d="M227.838 293.682V299.771C227.838 305.373 223.291 309.92 217.689 309.92H183.468V293.682H227.838Z" fill="#E6F7FE"/>
<path d="M401.887 293.682L410.027 301.801L401.887 309.92H301.923C296.321 309.92 291.774 305.373 291.774 299.771V282.864C291.774 277.261 296.321 272.715 301.923 272.715H308.012V283.533C308.012 289.135 312.558 293.682 318.16 293.682H401.887Z" fill="#7FCB8F"/>
<path d="M512 293.682V299.771C512 305.373 507.454 309.92 501.852 309.92H401.887V293.682H512Z" fill="#E6F7FE"/>
<path d="M83.9295 371.857L88.337 388.688L83.9295 409.052L18.8938 406.007C13.2917 406.007 8.74512 401.471 8.74512 395.859L9.43624 382.988C9.43624 377.386 13.9828 372.839 19.5849 372.839L24.8642 371.857H83.9295Z" fill="#FFE07D"/>
<path d="M227.838 382.006V392.814L225.452 395.859C225.452 401.471 220.905 406.007 215.303 406.007L83.9297 409.052V371.857H217.689C223.291 371.857 227.838 376.404 227.838 382.006Z" fill="#F5FCFF"/>
<path d="M455.756 371.857L459.476 392.402L455.756 406.783L304.697 406.007C299.095 406.007 294.549 401.471 294.549 395.859L293.815 383.203C293.815 377.601 298.362 373.055 303.964 373.055L309.027 371.856H455.756V371.857Z" fill="#FFE07D"/>
<path d="M512 382.006V392.814L510.996 397.282C510.996 402.895 506.449 407.431 500.847 407.431L455.756 406.784V371.857H501.851C507.453 371.857 512 376.404 512 382.006Z" fill="#F5FCFF"/>
<path d="M83.9293 392.814L87.6457 400.933L83.9293 409.052H17.76C12.1579 409.052 7.61133 404.515 7.61133 398.903V382.006C7.61133 376.404 12.1579 371.857 17.76 371.857H24.8641V382.665C24.8641 388.277 29.4107 392.814 35.0127 392.814H83.9293Z" fill="#FFD064"/>
<path d="M227.838 392.814V398.903C227.838 404.515 223.291 409.052 217.689 409.052H83.9297V392.814H227.838Z" fill="#E6F7FE"/>
<path d="M455.756 392.814L460.339 399.743L455.756 409.052H301.923C296.321 409.052 291.774 404.515 291.774 398.903V382.006C291.774 376.404 296.321 371.857 301.923 371.857H309.027V382.665C309.027 388.277 313.573 392.814 319.175 392.814H455.756Z" fill="#FFD064"/>
<path d="M512 392.814V398.903C512 404.515 507.453 409.052 501.851 409.052H455.756V392.814H512Z" fill="#E6F7FE"/>
<path d="M117.724 471L120.985 485.942L119.085 505.807L21.1396 505.15C15.5375 505.15 10.9909 500.603 10.9909 495.001L10.9473 483.006C10.9473 477.404 15.4939 472.858 21.0959 472.858L23.8493 471H117.724Z" fill="#BED9FD"/>
<path d="M117.724 348.499H7.6115C3.40792 348.499 0 345.092 0 340.887C0 336.683 3.40792 333.276 7.6115 333.276H117.724C121.928 333.276 125.336 336.683 125.336 340.887C125.336 345.092 121.928 348.499 117.724 348.499ZM117.724 249.36H7.6115C3.40792 249.36 0 245.953 0 241.748C0 237.544 3.40792 234.137 7.6115 234.137H117.724C121.928 234.137 125.336 237.544 125.336 241.748C125.336 245.953 121.928 249.36 117.724 249.36ZM117.724 447.638H7.6115C3.40792 447.638 0 444.231 0 440.027C0 435.822 3.40792 432.415 7.6115 432.415H117.724C121.928 432.415 125.336 435.822 125.336 440.027C125.336 444.231 121.928 447.638 117.724 447.638ZM401.887 348.499H291.774C287.57 348.499 284.163 345.092 284.163 340.887C284.163 336.683 287.57 333.276 291.774 333.276H401.887C406.091 333.276 409.499 336.683 409.499 340.887C409.499 345.092 406.091 348.499 401.887 348.499ZM401.887 249.36H291.774C287.57 249.36 284.163 245.953 284.163 241.748C284.163 237.544 287.57 234.137 291.774 234.137H401.887C406.091 234.137 409.499 237.544 409.499 241.748C409.499 245.953 406.091 249.36 401.887 249.36ZM401.887 447.638H291.774C287.57 447.638 284.163 444.231 284.163 440.027C284.163 435.822 287.57 432.415 291.774 432.415H401.887C406.091 432.415 409.499 435.822 409.499 440.027C409.499 444.231 406.091 447.638 401.887 447.638Z" fill="#E6F7FE"/>
<path d="M512 481.148V491.956L509.701 495.001C509.701 500.603 505.154 505.15 499.552 505.15L401.887 506.153V471H501.852C507.454 471 512 475.546 512 481.148Z" fill="#F5FCFF"/>
<path d="M401.887 491.956L408.214 500.075L401.887 508.194H301.923C296.321 508.194 291.774 503.648 291.774 498.046V481.148C291.774 475.546 296.321 471 301.923 471H308.012V481.808C308.012 487.41 312.558 491.956 318.16 491.956H401.887Z" fill="#9EC8FC"/>
<path d="M512 491.956V498.045C512 503.647 507.454 508.194 501.852 508.194H401.887V491.956H512Z" fill="#E6F7FE"/>
<path d="M227.838 481.148V491.956L225.624 495.66C225.624 501.262 221.078 505.808 215.476 505.808L117.725 508.194V471H217.689C223.291 471 227.838 475.546 227.838 481.148Z" fill="#F5FCFF"/>
<path d="M117.724 491.956L120.985 500.075L117.724 508.194H17.76C12.1579 508.194 7.61133 503.648 7.61133 498.046V481.148C7.61133 475.546 12.1579 471 17.76 471H23.8492V481.808C23.8492 487.41 28.3958 491.956 33.9979 491.956H117.724Z" fill="#9EC8FC"/>
<path d="M227.838 491.956V498.045C227.838 503.647 223.291 508.194 217.689 508.194H117.725V491.956H227.838Z" fill="#E6F7FE"/>
<path d="M132.645 138.783L154.076 140.591L177.094 150.059C180.507 151.463 183.473 153.771 185.672 156.735C187.872 159.698 189.221 163.206 189.576 166.879L191.716 189.039C192.582 197.997 185.316 202.791 176.317 202.771L60.6107 202.472C51.6636 202.451 48.1268 194.797 48.9509 185.889L52.785 169.879C53.126 166.19 54.4702 162.665 56.6719 159.685C58.8736 156.706 61.8488 154.386 65.275 152.977L97.4524 134.033L132.645 138.783Z" fill="#BED9FD"/>
<path d="M67.5208 190.46C63.027 190.46 59.5054 186.595 59.9215 182.121L61.2053 168.325C61.2914 167.405 61.6284 166.525 62.1795 165.783C62.7306 165.04 63.4748 164.463 64.3311 164.114L94.7476 151.606C96.379 150.932 98.1943 150.85 99.8798 151.373C105.373 153.091 111.095 153.965 116.85 153.966C130.531 153.966 143.288 149.085 154.076 140.59L138.132 134.034H97.4462L80.2949 141.087L80.296 141.089L58.5372 150.038C55.1124 151.447 52.1387 153.766 49.9382 156.745C47.7378 159.723 46.3946 163.248 46.0544 166.935L44.0246 189.059C43.2026 197.97 50.2052 205.662 59.1461 205.683L176.526 205.723C185.04 205.744 191.82 198.812 191.789 190.47L67.5208 190.46Z" fill="#9EC8FC"/>
<path d="M68.6201 62.9604C69.8359 102.218 87.252 138.737 116.853 138.737C146.498 138.737 170.665 107.316 171.814 67.9758L118.784 24.229L68.6201 62.9604Z" fill="#F7E5C1"/>
<path d="M127 137.474C123.712 138.306 120.322 138.732 116.851 138.732C87.2478 138.732 63.1143 107.413 61.8965 68.1483L83.023 57.9712L82.823 60.4292C82.1339 68.88 82.5338 77.4079 84.3352 85.6933C90.0773 112.097 106.546 132.366 127 137.474Z" fill="#F4D9B1"/>
<path d="M168.618 21.4937C166.399 18.853 160.283 11.5754 149.387 8.88705C145.792 8.00477 142.079 7.71274 138.391 8.02239C131.816 8.5623 125.225 7.72503 118.884 5.90639C112.078 3.9548 102.626 2.65679 91.9229 5.28225C87.1895 6.44326 75.9844 10.1749 65.7992 24.4186C54.387 40.3773 58.2993 57.7975 60.256 64.7473C60.7076 66.3508 63.0926 63.3255 64.7579 63.3265C81.0922 63.3367 102.637 63.4371 119.869 47.0125C127.026 40.1906 138.619 41.379 144.343 49.4411C151.48 59.4944 157.614 66.9384 172.4 67.8122C174.187 67.9178 175.779 66.6948 176.191 64.9523C178.035 57.1581 181.27 36.5493 168.618 21.4937Z" fill="#5F6C75"/>
<path d="M121.723 45.486C121.073 45.9426 120.454 46.4501 119.866 47.0083C102.633 63.4389 76.8049 67.9855 60.4656 67.9754C59.6571 67.9758 58.8709 67.7109 58.2274 67.2214C57.584 66.732 57.1189 66.0449 56.9034 65.2657C54.9447 58.3139 51.0375 40.8886 62.4446 24.9349C72.6338 10.6862 87.187 6.44406 91.9265 5.27696C94.2099 4.71878 96.4325 4.33313 98.584 4.10986C93.2661 6.66733 87.0855 10.808 82.0518 17.4249C71.5479 31.2778 75.1507 46.3993 76.947 52.4276C77.3631 53.818 78.7027 54.7821 80.2352 54.7821C91.4901 54.7923 107.657 52.5799 121.723 45.486ZM125.052 43.6795C123.966 44.3189 122.86 44.9176 121.733 45.486C122.778 44.735 123.895 44.1463 125.052 43.6795Z" fill="#4E5A61"/>
<path d="M465.448 66.3721V75.0391C445.496 73.1007 433.175 61.6936 426.162 51.9509C421.179 45.0193 411.396 43.6899 404.901 49.2412C393.17 59.2691 379.041 72.4106 347.982 74.8351C346.779 74.9295 345.444 73.2174 344.189 73.2783C342.891 73.3412 344.705 70.3474 343.35 70.3737L342.568 65.5694C342.568 31.0132 368.335 3.80664 402.881 3.80664C437.438 3.80563 465.448 31.8159 465.448 66.3721Z" fill="#5F6C75"/>
<path d="M407.611 47.4045C406.667 47.9018 405.754 48.5107 404.901 49.2414C401.765 51.9207 398.457 54.8232 394.702 57.6851C383.305 66.3723 367.757 74.6739 340.315 75.2017V66.3724C340.315 57.6445 342.101 49.3226 345.339 41.7821C352.422 25.2297 366.438 12.3409 383.741 6.78955C379.743 9.30642 375.612 12.7468 372.05 17.4253C361.546 31.2783 365.149 46.3998 366.945 52.4281C367.361 53.8185 368.701 54.7826 370.233 54.7826C380.402 54.7927 394.59 52.9863 407.611 47.4045Z" fill="#4E5A61"/>
</g>
<defs>
<clipPath id="clip0_224_56">
<rect width="512" height="512" fill="white"/>
</clipPath>
</defs>
</svg>
