<svg width="512" height="512" viewBox="0 0 512 512" fill="none" xmlns="http://www.w3.org/2000/svg">
<path fill-rule="evenodd" clip-rule="evenodd" d="M95.2403 271.819H194.478L314.284 364.27C330.395 376.713 334.817 398.892 325.665 416.374L444.339 358.82C464.872 348.879 489.793 357.517 499.734 378.051C509.675 398.55 501.037 423.505 480.503 433.446C268.212 536.386 309.244 540.26 95.2393 428.613L95.2403 271.819Z" fill="#FFCEBF"/>
<path d="M205.07 359.849L197.014 353.644L184.605 369.721L270.851 436.291C282.129 444.964 295.875 448.255 308.969 446.575C322.098 444.861 334.61 438.211 343.282 426.967C344.756 425.013 346.093 423.025 347.258 420.968C348.448 418.878 349.502 416.714 350.412 414.489L355.52 401.874L325.663 416.374C320.656 421.909 313.836 425.471 306.432 426.418C298.445 427.446 290.081 425.458 283.294 420.213L205.07 359.849Z" fill="#FFB09E"/>
<path fill-rule="evenodd" clip-rule="evenodd" d="M8.13672 243.368H95.2397V457.098H8.13672V243.368Z" fill="#435469"/>
<path fill-rule="evenodd" clip-rule="evenodd" d="M495.827 217.59C515.263 183.928 454.452 112.456 360.047 57.9522C265.643 3.44823 173.363 -13.4518 153.927 20.1762C143.172 38.8472 132.397 57.5065 121.602 76.1542C102.166 109.816 162.977 181.288 257.382 235.792C351.787 290.296 444.066 307.23 463.503 273.568C474.266 254.886 485.064 236.238 495.827 217.59Z" fill="#FE9923"/>
<path fill-rule="evenodd" clip-rule="evenodd" d="M360.047 57.9522C265.643 3.44823 173.363 -13.4518 153.927 20.1762C134.491 53.8382 195.268 125.31 289.707 179.814C384.112 234.318 476.391 251.252 495.828 217.59C515.265 183.928 454.452 112.456 360.047 57.9522Z" fill="#FECD3D"/>
<path fill-rule="evenodd" clip-rule="evenodd" d="M343.593 86.4379C268.488 43.0749 199.21 22.4389 188.857 40.3669C178.539 58.2949 231.02 107.966 306.126 151.329C381.232 194.692 450.51 215.328 460.862 197.4C471.215 179.472 418.733 129.801 343.593 86.4379Z" fill="#FEA832"/>
<path d="M160.988 114.718L143.78 144.507C139.667 139.468 135.999 134.532 132.811 129.698L146.351 106.251L160.988 114.718ZM175.694 177.483C179.955 181.289 184.298 185.004 188.72 188.624L205.105 160.206L190.502 151.808L175.694 177.483ZM224.336 215.156C229.008 218.3 233.728 221.374 238.493 224.377L254.124 197.262L239.521 188.863L224.336 215.156ZM276.681 246.453C281.754 249.093 286.793 251.664 291.764 254.063L306.95 227.805L292.347 219.338L276.681 246.453ZM332.556 271.682C337.909 273.689 343.304 275.586 348.736 277.372L363.545 251.697L348.942 243.298L332.556 271.682ZM393.23 288.548C399.64 289.576 405.776 290.262 411.535 290.605L425.041 267.192L410.438 258.725L393.23 288.548Z" fill="#C85929"/>
<path d="M480.162 0.5V24.221H503.849V41.155H480.162V64.842H463.228V41.155H439.507V24.221H463.228V0.5H480.162ZM48.7927 106.628V130.315H72.5137V147.249H48.7927V170.97H31.8587V147.249H8.13672V130.315H31.8587V106.628H48.7927Z" fill="#FEA832"/>
</svg>
