<svg width="512" height="512" viewBox="0 0 512 512" fill="none" xmlns="http://www.w3.org/2000/svg">
<path d="M8.87109 96.2461V454.941C8.87109 475.914 25.9049 492.849 46.7788 492.849H384.502C405.474 492.849 422.41 475.914 422.41 454.941V96.2461H8.87109Z" fill="#DEDDFF"/>
<path d="M68.9326 492.849H46.7788C25.9049 492.849 8.87109 475.914 8.87109 454.941V96.2461H31.0249V454.941C31.0249 475.914 48.0588 492.849 68.9326 492.849Z" fill="#C6C6F7"/>
<path d="M422.41 57.0586V97.034H8.87109V57.0586C8.87109 36.0863 25.9049 19.1509 46.7788 19.1509H384.502C405.474 19.1509 422.41 36.0863 422.41 57.0586Z" fill="#5B5E8B"/>
<path d="M68.9326 19.1509C48.0588 19.1509 31.0249 36.0863 31.0249 57.0586V97.034H8.87109V57.0586C8.87109 36.0863 25.9049 19.1509 46.7788 19.1509H68.9326Z" fill="#312E4B"/>
<path d="M62.1975 71.6505C69.7997 71.6505 75.9625 65.4877 75.9625 57.8855C75.9625 50.2834 69.7997 44.1206 62.1975 44.1206C54.5954 44.1206 48.4326 50.2834 48.4326 57.8855C48.4326 65.4877 54.5954 71.6505 62.1975 71.6505Z" fill="#DEDDFF"/>
<path d="M104.87 71.6505C112.473 71.6505 118.635 65.4877 118.635 57.8855C118.635 50.2834 112.473 44.1206 104.87 44.1206C97.2682 44.1206 91.1055 50.2834 91.1055 57.8855C91.1055 65.4877 97.2682 71.6505 104.87 71.6505Z" fill="#DEDDFF"/>
<path d="M147.554 71.6505C155.156 71.6505 161.319 65.4877 161.319 57.8855C161.319 50.2834 155.156 44.1206 147.554 44.1206C139.952 44.1206 133.789 50.2834 133.789 57.8855C133.789 65.4877 139.952 71.6505 147.554 71.6505Z" fill="#DEDDFF"/>
<path d="M382.847 57.9347C382.847 63.0547 378.613 67.2886 373.493 67.2886H251.303C248.822 67.2886 246.443 66.3031 244.688 64.5489C242.934 62.7947 241.949 60.4155 241.949 57.9347C241.949 52.7163 246.084 48.4824 251.303 48.4824H373.493C378.613 48.4824 382.847 52.7163 382.847 57.9347Z" fill="#DEDDFF"/>
<path d="M163.879 377.108V439.434C163.879 447.212 157.577 453.514 149.799 453.514H62.2667C54.4882 453.514 48.2852 447.212 48.2852 439.434V377.108C48.2852 369.329 54.4882 363.028 62.2667 363.028H149.799C157.577 363.028 163.879 369.329 163.879 377.108Z" fill="#65B9FF"/>
<path d="M89.9344 453.514H62.2667C54.4882 453.514 48.2852 447.212 48.2852 439.434V377.108C48.2852 369.329 54.4882 363.028 62.2667 363.028H89.9344C82.1559 363.028 75.8544 369.329 75.8544 377.108V439.434C75.8544 447.212 82.1559 453.514 89.9344 453.514Z" fill="#3E7FFF"/>
<path d="M377.118 386.885H205.982C204.463 386.823 203.027 386.176 201.975 385.08C200.922 383.983 200.334 382.522 200.334 381.002C200.334 379.482 200.922 378.021 201.975 376.925C203.027 375.828 204.463 375.181 205.982 375.119H377.118C378.636 375.181 380.072 375.828 381.125 376.925C382.177 378.021 382.765 379.482 382.765 381.002C382.765 382.522 382.177 383.983 381.125 385.08C380.072 386.176 378.636 386.823 377.118 386.885ZM377.118 414.149H205.982C204.42 414.149 202.923 413.529 201.818 412.425C200.714 411.321 200.094 409.823 200.094 408.261C200.094 406.7 200.714 405.202 201.818 404.098C202.923 402.994 204.42 402.373 205.982 402.373H377.118C378.679 402.373 380.177 402.994 381.281 404.098C382.385 405.202 383.006 406.7 383.006 408.261C383.006 409.823 382.385 411.321 381.281 412.425C380.177 413.529 378.679 414.149 377.118 414.149ZM287.104 441.403H205.982C204.463 441.341 203.027 440.694 201.975 439.598C200.922 438.501 200.334 437.04 200.334 435.52C200.334 434 200.922 432.539 201.975 431.443C203.027 430.346 204.463 429.699 205.982 429.637H287.104C288.623 429.699 290.059 430.346 291.111 431.443C292.164 432.539 292.751 434 292.751 435.52C292.751 437.04 292.164 438.501 291.111 439.598C290.059 440.694 288.623 441.341 287.104 441.403Z" fill="#B5B5EA"/>
<path d="M163.879 263.385V325.711C163.879 333.489 157.577 339.791 149.799 339.791H62.2667C54.4882 339.791 48.2852 333.489 48.2852 325.711V263.385C48.2852 255.606 54.4882 249.305 62.2667 249.305H149.799C157.577 249.305 163.879 255.606 163.879 263.385Z" fill="#E83D62"/>
<path d="M89.9344 339.791H62.2667C54.4882 339.791 48.2852 333.489 48.2852 325.711V263.385C48.2852 255.606 54.4882 249.305 62.2667 249.305H89.9344C82.1559 249.305 75.8544 255.606 75.8544 263.385V325.711C75.8544 333.489 82.1559 339.791 89.9344 339.791Z" fill="#CE2955"/>
<path d="M377.118 273.172H205.982C204.463 273.11 203.027 272.463 201.975 271.366C200.922 270.27 200.334 268.809 200.334 267.289C200.334 265.769 200.922 264.308 201.975 263.211C203.027 262.115 204.463 261.468 205.982 261.406H377.118C378.636 261.468 380.072 262.115 381.125 263.211C382.177 264.308 382.765 265.769 382.765 267.289C382.765 268.809 382.177 270.27 381.125 271.366C380.072 272.463 378.636 273.11 377.118 273.172ZM377.118 300.436H205.982C204.42 300.436 202.923 299.816 201.818 298.711C200.714 297.607 200.094 296.11 200.094 294.548C200.094 292.986 200.714 291.489 201.818 290.384C202.923 289.28 204.42 288.66 205.982 288.66H377.118C378.679 288.66 380.177 289.28 381.281 290.384C382.385 291.489 383.006 292.986 383.006 294.548C383.006 296.11 382.385 297.607 381.281 298.711C380.177 299.816 378.679 300.436 377.118 300.436ZM287.104 327.69H205.982C204.463 327.628 203.027 326.981 201.975 325.884C200.922 324.788 200.334 323.327 200.334 321.807C200.334 320.287 200.922 318.826 201.975 317.73C203.027 316.633 204.463 315.986 205.982 315.924H287.104C288.623 315.986 290.059 316.633 291.111 317.73C292.164 318.826 292.751 320.287 292.751 321.807C292.751 323.327 292.164 324.788 291.111 325.884C290.059 326.981 288.623 327.628 287.104 327.69Z" fill="#B5B5EA"/>
<path d="M163.879 149.662V211.988C163.879 219.766 157.577 226.068 149.799 226.068H62.2667C54.4882 226.068 48.2852 219.766 48.2852 211.988V149.662C48.2852 141.883 54.4882 135.582 62.2667 135.582H149.799C157.577 135.582 163.879 141.883 163.879 149.662Z" fill="#46CC6B"/>
<path d="M89.9344 226.068H62.2667C54.4882 226.068 48.2852 219.766 48.2852 211.988V149.662C48.2852 141.883 54.4882 135.582 62.2667 135.582H89.9344C82.1559 135.582 75.8544 141.883 75.8544 149.662V211.988C75.8544 219.766 82.1559 226.068 89.9344 226.068Z" fill="#179C5F"/>
<path d="M377.118 159.459H205.982C204.463 159.396 203.027 158.749 201.975 157.653C200.922 156.556 200.334 155.095 200.334 153.575C200.334 152.056 200.922 150.595 201.975 149.498C203.027 148.402 204.463 147.755 205.982 147.692H377.118C378.636 147.755 380.072 148.402 381.125 149.498C382.177 150.595 382.765 152.056 382.765 153.575C382.765 155.095 382.177 156.556 381.125 157.653C380.072 158.749 378.636 159.396 377.118 159.459ZM377.118 186.723H205.982C204.42 186.723 202.923 186.102 201.818 184.998C200.714 183.894 200.094 182.396 200.094 180.835C200.094 179.273 200.714 177.775 201.818 176.671C202.923 175.567 204.42 174.947 205.982 174.947H377.118C378.679 174.947 380.177 175.567 381.281 176.671C382.385 177.775 383.006 179.273 383.006 180.835C383.006 182.396 382.385 183.894 381.281 184.998C380.177 186.102 378.679 186.723 377.118 186.723ZM287.104 213.977H205.982C204.463 213.915 203.027 213.268 201.975 212.171C200.922 211.075 200.334 209.614 200.334 208.094C200.334 206.574 200.922 205.113 201.975 204.016C203.027 202.92 204.463 202.273 205.982 202.211H287.104C288.623 202.273 290.059 202.92 291.111 204.016C292.164 205.113 292.751 206.574 292.751 208.094C292.751 209.614 292.164 211.075 291.111 212.171C290.059 213.268 288.623 213.915 287.104 213.977Z" fill="#B5B5EA"/>
<path d="M500.46 212.933L426.919 370.235C421.599 381.711 413.157 391.459 402.56 398.366L379.658 413.283C379.011 413.702 378.269 413.951 377.501 414.005C376.732 414.059 375.962 413.917 375.263 413.592C374.564 413.268 373.96 412.771 373.506 412.148C373.051 411.526 372.763 410.798 372.667 410.033L369.25 382.927C367.669 370.367 369.655 357.616 374.981 346.132L448.522 188.839C450.057 185.357 452.271 182.215 455.035 179.598C457.799 176.981 461.057 174.941 464.618 173.598C468.18 172.255 471.973 171.635 475.777 171.775C479.581 171.916 483.318 172.813 486.771 174.414C490.224 176.016 493.323 178.29 495.886 181.104C498.45 183.917 500.427 187.214 501.701 190.8C502.976 194.387 503.523 198.191 503.31 201.992C503.097 205.792 502.128 209.511 500.46 212.933Z" fill="#E83D62"/>
<path d="M502.213 193.969C495.763 192.289 488.928 192.926 482.9 195.769C476.873 198.612 472.034 203.481 469.228 209.526L395.677 366.868C390.364 378.331 388.385 391.059 389.966 403.594L390.36 406.351L379.628 413.342C378.977 413.74 378.238 413.971 377.476 414.015C376.714 414.058 375.953 413.913 375.261 413.591C374.57 413.27 373.968 412.782 373.51 412.171C373.052 411.561 372.752 410.847 372.637 410.092L369.29 382.917C367.714 370.412 369.683 357.612 375 346.092L448.551 188.849C455.148 174.474 472.182 168.271 486.557 174.966C494.73 178.708 500.243 185.895 502.213 193.969Z" fill="#CE2955"/>
<path d="M422.272 378.644C417.145 386.519 410.427 393.233 402.55 398.356L394.2 403.811L379.657 413.303C379.01 413.717 378.268 413.961 377.502 414.012C376.735 414.064 375.967 413.921 375.27 413.597C374.573 413.273 373.969 412.778 373.514 412.159C373.059 411.539 372.768 410.815 372.667 410.053L370.481 392.803L369.25 382.917C368.09 373.592 368.878 364.127 371.564 355.122L422.272 378.644Z" fill="#FFAF93"/>
<path d="M437.07 213.76L444.514 197.74L496.443 221.844L489.009 237.873L437.07 213.76Z" fill="#DEDDFF"/>
<path d="M493.459 228.017L500.46 212.933C502.128 209.511 503.096 205.792 503.309 201.992C503.523 198.191 502.976 194.387 501.701 190.8C500.427 187.214 498.45 183.917 495.886 181.104C493.322 178.29 490.224 176.016 486.771 174.414C483.318 172.813 479.58 171.916 475.777 171.775C471.973 171.635 468.179 172.255 464.618 173.598C461.057 174.941 457.799 176.981 455.035 179.598C452.271 182.215 450.057 185.357 448.522 188.839L441.521 203.924L493.459 228.017ZM394.2 403.811L379.658 413.302C379.01 413.716 378.269 413.96 377.502 414.012C376.735 414.063 375.967 413.92 375.27 413.597C374.573 413.273 373.969 412.778 373.514 412.159C373.059 411.539 372.768 410.815 372.667 410.053L370.481 392.803C375.099 391.32 380.107 391.636 384.502 393.689C389.1 395.815 392.428 399.488 394.2 403.811Z" fill="#5B5E8B"/>
<path d="M131.919 165.937C131.324 165.342 130.618 164.87 129.841 164.547C129.064 164.225 128.231 164.059 127.39 164.059C126.548 164.059 125.715 164.225 124.938 164.547C124.161 164.87 123.455 165.342 122.86 165.937L101.967 186.841L95.6161 180.726C94.3926 179.549 92.7515 178.905 91.0536 178.937C89.3557 178.97 87.7402 179.675 86.5625 180.899C85.3848 182.122 84.7413 183.763 84.7736 185.461C84.8059 187.159 85.5114 188.774 86.7348 189.952L97.605 200.419C98.8129 201.579 100.428 202.22 102.103 202.204C103.778 202.187 105.38 201.515 106.565 200.33L131.919 174.986C133.118 173.786 133.792 172.158 133.792 170.462C133.792 168.765 133.118 167.137 131.919 165.937ZM131.919 277.347C131.324 276.751 130.618 276.279 129.841 275.956C129.064 275.634 128.231 275.468 127.39 275.468C126.548 275.468 125.715 275.634 124.938 275.956C124.161 276.279 123.455 276.751 122.86 277.347L101.967 298.25L95.6161 292.136C94.3926 290.958 92.7515 290.314 91.0536 290.347C89.3557 290.379 87.7402 291.084 86.5625 292.308C85.3848 293.531 84.7413 295.172 84.7736 296.87C84.8059 298.568 85.5114 300.184 86.7348 301.361L97.605 311.828C98.8116 312.99 100.426 313.633 102.101 313.618C103.776 313.603 105.379 312.932 106.565 311.749L131.919 286.395C133.118 285.195 133.792 283.568 133.792 281.871C133.792 280.174 133.118 278.547 131.919 277.347ZM131.919 388.766C131.324 388.17 130.618 387.698 129.841 387.376C129.064 387.053 128.231 386.887 127.39 386.887C126.548 386.887 125.715 387.053 124.938 387.376C124.161 387.698 123.455 388.17 122.86 388.766L101.967 409.669L95.6161 403.545C94.3926 402.367 92.7515 401.724 91.0536 401.756C89.3557 401.788 87.7402 402.494 86.5625 403.717C85.3848 404.94 84.7413 406.582 84.7736 408.279C84.8059 409.977 85.5114 411.593 86.7348 412.771L97.605 423.247C98.8142 424.406 100.43 425.046 102.105 425.027C103.78 425.009 105.382 424.334 106.565 423.148L131.919 397.814C132.514 397.22 132.987 396.514 133.309 395.737C133.631 394.96 133.797 394.126 133.797 393.285C133.797 392.444 133.631 391.611 133.309 390.833C132.987 390.056 132.514 389.36 131.919 388.766Z" fill="#DEDDFF"/>
</svg>
