<svg width="512" height="512" viewBox="0 0 512 512" fill="none" xmlns="http://www.w3.org/2000/svg">
<g clip-path="url(#clip0_224_2)">
<path d="M31.9906 202.677C8.40583 209.027 0 226.685 0 240.02V305.392C0 328.069 23.8266 376.055 23.8266 392.081V408.015H130.2C137.457 389.329 152 384.007 152 352.017V344.004H64.0113C60.8563 344.012 57.7308 343.397 54.8144 342.193C51.898 340.989 49.2483 339.221 47.0173 336.99C44.7864 334.759 43.0183 332.109 41.8146 329.193C40.6109 326.277 39.9953 323.151 40.0033 319.996V202.677H31.9906Z" fill="#FFC6A0"/>
<path d="M416.059 378.263L495.823 447.686C507.646 457.997 506.074 477.016 494.644 487.78C483.215 498.575 463.923 499.24 454.55 486.601L390.629 400.547L416.059 378.263Z" fill="#E4EFF8"/>
<path d="M416.059 378.263L390.629 400.547L397.191 409.407C409.032 404.921 419.955 398.312 429.423 389.904L416.059 378.263Z" fill="#C4DCF0"/>
<path d="M416.059 378.263L404.024 388.815L471.997 448.019C483.85 458.3 482.277 477.318 470.848 488.113C468.46 490.294 465.734 492.071 462.775 493.374C472.753 498.273 485.966 496.005 494.644 487.78C506.074 477.016 507.646 457.997 495.793 447.686L416.059 378.263Z" fill="#C4DCF0"/>
<path d="M16.0254 408.016H143.988V440.006H16.0254V408.016Z" fill="#E4EFF8"/>
<path d="M124.062 408.016C99.0557 425.916 43.2083 430.391 15.9951 431.51V440.006H143.988V408.016H124.062Z" fill="#C4DCF0"/>
<path d="M31.9902 352.017V24.008C31.9902 10.7038 42.6941 0 55.9983 0H488.022C501.326 0 512 10.7038 512 24.008V328.009C512 341.313 501.296 352.017 488.022 352.017H440.006H31.9902Z" fill="#549AD4"/>
<path d="M495.218 1.20947C516.324 330.881 131.56 351.261 54.7285 352.017H488.022C501.326 352.017 512 341.313 512 328.009V24.008C511.998 18.9153 510.369 13.9564 507.35 9.85501C504.331 5.7536 500.081 2.72439 495.218 1.20947Z" fill="#3588CB"/>
<path d="M64.0117 319.996V56.029C64.0117 42.7248 74.7156 31.9907 87.9895 31.9907H456.002C469.306 31.9907 480.01 42.6946 480.01 55.9988V296.019C480.01 309.323 469.306 319.996 456.002 319.996H400.033H64.0117Z" fill="#E4EFF8"/>
<path d="M120.01 192.004H167.996V256.015H120.04L120.01 192.004Z" fill="#FF5151"/>
<path d="M87.9896 31.9908C84.8371 31.9868 81.7149 32.6053 78.802 33.8107C75.8891 35.0162 73.2429 36.7849 71.0151 39.0155C68.7874 41.246 67.022 43.8945 65.8202 46.8089C64.6184 49.7233 64.0038 52.8463 64.0118 55.9988V319.996H70.9663C58.418 233.277 88.9572 36.617 480.01 51.2516C478.925 45.8142 475.986 40.9218 471.696 37.4092C467.406 33.8966 462.03 31.9815 456.486 31.9908H87.9896Z" fill="#C4DCF0"/>
<path d="M167.996 160.013H216.012V256.015H167.996V160.013Z" fill="#B4D305"/>
<path d="M480.01 130.109C444.028 235.514 345.093 290.908 255.925 319.996H456.002C469.306 319.996 480.01 309.292 480.01 296.018V130.109Z" fill="#C4DCF0"/>
<path d="M103.289 367.831C103.198 327.918 71.2982 319.845 71.2982 303.85V269.531C70.0888 229.528 31.2949 221.515 31.2949 245.523V367.982L103.289 367.831Z" fill="#FFC6A0"/>
<path d="M36.3442 234.275C45.7176 238.871 54.7282 250.542 55.3027 269.531V303.82C55.3027 319.845 87.2932 336.022 87.2932 367.922C95.306 367.922 102.412 359.244 101.172 352.017C94.4896 324.744 71.298 317.578 71.298 303.82V269.531C70.5421 244.525 55.1213 232.038 43.6313 232.038C41.0378 232.006 38.4695 232.788 36.3442 234.275ZM132.558 352.017C109.578 386.094 59.4754 399.429 23.8262 404.629V408.016H130.199C137.456 389.329 152 384.008 152 352.017H132.558Z" fill="#FFAF7A"/>
<path d="M192.004 160.013H216.012V256.015H192.004V160.013Z" fill="#94AC04"/>
<path d="M144.018 192.004H167.995V256.015H144.018V192.004Z" fill="#FF2929"/>
<path d="M248.002 256.015H216.012V111.997H263.967V239.99L248.002 256.015Z" fill="#549AD4"/>
<path d="M240.02 111.997V256.015H248.002L264.028 239.99V112.027L240.02 111.997Z" fill="#3588CB"/>
<path d="M411.554 240.443C421.115 250.342 428.617 262.039 433.625 274.858C438.632 287.677 441.046 301.362 440.727 315.121C440.407 328.88 437.361 342.438 431.764 355.011C426.166 367.583 418.13 378.92 408.119 388.364C398.109 397.809 386.324 405.172 373.447 410.029C360.57 414.886 346.857 417.139 333.104 416.658C319.35 416.176 305.828 412.971 293.322 407.226C280.816 401.481 269.574 393.312 260.249 383.191C241.698 363.06 231.832 336.428 232.789 309.07C233.746 281.712 245.45 255.834 265.361 237.049C285.273 218.263 311.787 208.085 339.155 208.72C366.522 209.355 392.535 220.754 411.554 240.443Z" fill="#FF5151"/>
<path d="M401.182 231.04C417.509 251.431 425.569 277.217 423.759 303.277C421.95 329.337 410.404 353.762 391.416 371.701C373.125 388.924 349.221 398.947 324.117 399.92C299.012 400.893 274.404 392.749 254.836 376.993C256.559 379.2 258.404 381.347 260.309 383.403C269.684 393.344 280.925 401.341 293.39 406.937C305.856 412.533 319.302 415.62 332.96 416.02C346.618 416.42 360.222 414.126 372.993 409.269C385.765 404.412 397.455 397.087 407.396 387.712C417.337 378.337 425.333 367.096 430.93 354.63C436.526 342.165 439.613 328.719 440.013 315.06C440.413 301.402 438.119 287.799 433.262 275.027C428.405 262.255 421.079 250.565 411.705 240.625C408.42 237.193 404.904 233.991 401.182 231.04Z" fill="#FF2929"/>
<path d="M388.24 262.456C394.896 269.296 400.125 277.392 403.622 286.272C407.119 295.152 408.814 304.639 408.61 314.181C408.406 323.722 406.306 333.128 402.432 341.85C398.558 350.573 392.988 358.437 386.046 364.987C379.103 371.536 370.928 376.639 361.995 379.998C353.062 383.358 343.55 384.907 334.012 384.555C324.475 384.204 315.103 381.959 306.441 377.95C297.78 373.942 290.002 368.251 283.561 361.209C270.809 347.267 264.052 328.87 264.748 309.99C265.444 291.109 273.537 273.259 287.28 260.294C301.023 247.329 319.314 240.289 338.203 240.693C357.092 241.098 375.065 248.914 388.24 262.456Z" fill="#E4EFF8"/>
<path d="M339.166 240.08C323.701 239.409 308.433 243.741 295.624 252.432C282.815 261.123 273.148 273.71 268.057 288.328C262.966 302.946 262.722 318.815 267.361 333.583C272 348.351 281.275 361.23 293.811 370.31C283.518 356.16 278.731 338.745 280.344 321.321C281.958 303.898 289.862 287.658 302.579 275.639C314.773 264.142 330.596 257.259 347.321 256.177C364.045 255.095 380.623 259.882 394.197 269.712C387.841 260.955 379.592 253.743 370.065 248.613C360.537 243.483 349.976 240.566 339.166 240.08Z" fill="#C4DCF0"/>
<path d="M8.0127 432.023H152V512H8.0127V432.023Z" fill="#38668C"/>
<path d="M134.735 432.023C109.215 469.578 46.5646 489.927 8.0127 493.979V512H152V432.023H134.735Z" fill="#2C5170"/>
<path d="M304.001 111.997C293.328 111.997 293.328 128.023 304.001 128.023H360C370.673 128.023 370.673 111.997 360 111.997H304.001Z" fill="#549AD4"/>
<path d="M304.001 144.018C293.328 144.018 293.328 160.013 304.001 160.013H415.998C426.672 160.013 426.672 143.988 415.998 143.988L304.001 144.018Z" fill="#B4D305"/>
<path d="M304.001 176.008C293.328 176.008 293.328 192.004 304.001 192.034H415.998C426.672 192.034 426.672 176.008 415.998 176.008H304.001Z" fill="#FF5151"/>
</g>
<defs>
<clipPath id="clip0_224_2">
<rect width="512" height="512" fill="white"/>
</clipPath>
</defs>
</svg>
