<svg width="512" height="512" viewBox="0 0 512 512" fill="none" xmlns="http://www.w3.org/2000/svg">
<path d="M378.415 104.495V464.912C378.415 487.564 360.029 505.949 337.377 505.949H75.4038C52.7517 505.949 34.3662 487.564 34.3662 464.912V104.495C34.3662 81.8425 52.7517 63.457 75.4038 63.457H337.3C360.029 63.457 378.415 81.8425 378.415 104.495Z" fill="#5D9BEC"/>
<path d="M378.414 104.495V464.679C378.414 487.409 359.951 505.872 337.222 505.872H75.6361C52.9064 505.872 34.4434 487.409 34.4434 464.679C34.4434 464.524 34.5985 464.369 34.7537 464.446C39.7185 466.696 45.2264 467.86 51.0446 467.86C218.375 467.86 353.978 332.257 353.978 164.926V67.4135C353.978 67.2584 354.211 67.1032 354.366 67.1808C368.562 73.6196 378.414 87.8935 378.414 104.495Z" fill="#4B89DC"/>
<path d="M353.978 113.803V455.602C353.978 468.48 343.505 478.875 330.628 478.875H82.2302C69.3526 478.875 58.8799 468.48 58.8799 455.602V113.803C58.8799 100.926 69.3526 90.4531 82.2302 90.4531H330.628C343.505 90.4531 353.978 100.926 353.978 113.803Z" fill="#F6F7FA"/>
<path d="M353.978 113.881V455.68C353.978 468.558 343.505 479.03 330.628 479.03H82.2303C71.2921 479.03 62.0605 471.428 59.5781 461.266C62.9139 463.127 66.7927 464.213 70.9042 464.213H117.217C241.726 464.213 342.73 363.287 342.73 238.701V99.142C342.73 97.125 342.497 95.2632 341.954 93.4014C345.591 95.4463 348.62 98.4194 350.732 102.017C352.845 105.615 353.965 109.709 353.978 113.881Z" fill="#E7E9EE"/>
<path d="M292.383 51.5879V97.2024C292.383 102.322 288.194 106.512 283.074 106.512H129.629C124.509 106.512 120.32 102.322 120.32 97.2024V51.5103C120.32 46.3903 124.509 42.2012 129.629 42.2012H170.124C170.124 17.1443 195.569 -1.8618 222.022 9.30911C234.9 14.7394 242.657 28.16 242.657 42.2012V42.3564H283.152C288.272 42.2788 292.383 46.4679 292.383 51.5879Z" fill="#FFCE54"/>
<path d="M292.461 85.6436V97.2799C292.461 102.4 288.272 106.589 283.152 106.589H129.629C124.509 106.589 120.32 102.4 120.32 97.2799V85.6436C120.32 90.7636 124.509 94.9526 129.629 94.9526H283.152C288.272 94.9526 292.461 90.7636 292.461 85.6436Z" fill="#F6BB43"/>
<path d="M206.352 54.0705C213.164 54.0705 218.687 48.5481 218.687 41.7359C218.687 34.9237 213.164 29.4014 206.352 29.4014C199.54 29.4014 194.018 34.9237 194.018 41.7359C194.018 48.5481 199.54 54.0705 206.352 54.0705Z" fill="white"/>
<path d="M445.285 482.521V494.701C445.285 496.718 446.914 498.269 448.854 498.269C450.793 498.269 452.345 496.718 452.345 494.701V482.521H445.285Z" fill="#434A54"/>
<path d="M420.461 225.28L420.228 434.192H458.318L477.401 434.269L477.557 225.28H439.389H420.461Z" fill="#FB6E52"/>
<path opacity="0.15" d="M467.86 336.834C467.66 336.645 467.501 336.416 467.394 336.162C467.288 335.909 467.235 335.635 467.239 335.36L467.317 233.426C467.317 232.262 468.248 231.409 469.334 231.409C470.497 231.409 471.351 232.34 471.351 233.426L471.273 335.36C471.273 336.524 470.342 337.377 469.256 337.377C468.713 337.455 468.248 337.222 467.86 336.834Z" fill="white"/>
<path d="M420.461 226.754L420.306 435.665H439.389L458.395 435.743H477.479V427.21H473.057L454.051 427.132C443.501 427.132 434.967 418.599 434.967 408.048L435.123 226.754H420.461Z" fill="#EA573F"/>
<path d="M420.383 180.364H477.557V225.28H420.383V180.364Z" fill="#CDD0DA"/>
<path d="M420.461 180.286V164.305C420.461 156.78 426.589 150.729 434.037 150.729H463.981C471.506 150.729 477.557 156.858 477.557 164.305V180.286H420.461Z" fill="#646D78"/>
<path d="M420.461 190.526H477.634V198.671H420.461V190.526ZM420.383 206.894H477.557V215.04H420.383V206.894Z" fill="#E7E9EE"/>
<path d="M420.228 434.191L440.863 482.676C441.329 483.685 441.949 484.616 442.725 485.391C444.277 486.943 446.449 487.951 448.854 487.874C452.344 487.874 455.447 485.857 456.766 482.676L477.401 434.269L420.228 434.191Z" fill="#FFCE54"/>
<path d="M420.228 434.191L440.863 482.676C441.329 483.685 441.949 484.616 442.725 485.391C444.277 486.943 446.449 487.951 448.854 487.874C452.344 487.874 455.447 485.857 456.766 482.676L456.844 482.521C456.611 482.599 456.223 482.599 455.913 482.599C453.586 482.599 451.413 481.668 449.784 480.116C449.009 479.34 448.388 478.41 447.923 477.401L429.537 434.269L420.228 434.191Z" fill="#F6BB43"/>
<path d="M145.687 280.824H196.034V288.582H145.687C122.181 288.582 103.02 307.743 103.02 331.248C103.02 354.754 122.181 373.915 145.687 373.915H147.549V368.252C147.549 365.071 150.962 363.132 153.677 364.684L170.278 374.225C172.994 375.777 172.994 379.733 170.278 381.285L153.677 390.904C150.962 392.456 147.549 390.439 147.549 387.336V381.673H145.687C132.314 381.673 119.488 376.36 110.032 366.904C100.575 357.447 95.2627 344.622 95.2627 331.248C95.2627 317.875 100.575 305.049 110.032 295.593C119.488 286.137 132.314 280.824 145.687 280.824ZM317.517 240.717C317.517 268.567 294.865 291.142 267.093 291.142H216.746V283.384H267.093C290.598 283.384 309.76 264.223 309.76 240.717C309.76 217.212 290.598 198.051 267.093 198.051H264.843V203.714C264.843 206.894 261.43 208.834 258.715 207.282L242.114 197.741C241.495 197.382 240.982 196.867 240.625 196.247C240.268 195.628 240.08 194.926 240.08 194.211C240.08 193.496 240.268 192.794 240.625 192.174C240.982 191.555 241.495 191.04 242.114 190.681L258.715 181.062C261.43 179.51 264.843 181.527 264.843 184.63V190.293H267.093C294.865 190.293 317.517 212.945 317.517 240.717ZM130.327 197.663H211.781V205.42H130.327V197.663ZM222.021 373.915H280.203V381.673H222.021V373.915Z" fill="#646D78"/>
<path d="M321.707 357.935V397.654C321.707 402.308 317.906 406.032 313.329 406.032H273.532C268.955 406.032 265.154 402.308 265.154 397.654V357.935C265.154 353.28 268.955 349.557 273.532 349.557H313.329C317.906 349.557 321.707 353.28 321.707 357.935Z" fill="#FB6E52"/>
<path d="M147.549 181.682V221.479C147.549 226.056 143.826 229.857 139.249 229.857H99.4524C94.7979 229.857 91.0742 226.056 91.0742 221.479V181.682C91.0742 177.105 94.7979 173.304 99.4524 173.304H139.249C143.826 173.304 147.549 177.105 147.549 181.682Z" fill="#ED5463"/>
<path d="M234.822 181.682V221.479C234.822 226.056 231.098 229.857 226.521 229.857H186.725C182.07 229.857 178.347 226.056 178.347 221.479V181.682C178.347 177.105 182.07 173.304 186.725 173.304H226.521C231.098 173.304 234.822 177.105 234.822 181.682Z" fill="#A1D469"/>
<path d="M234.822 357.935V397.654C234.822 402.308 231.098 406.032 226.521 406.032H186.725C182.07 406.032 178.347 402.308 178.347 397.654V357.935C178.347 353.28 182.07 349.557 186.725 349.557H226.521C231.098 349.557 234.822 353.28 234.822 357.935Z" fill="#ED87C0"/>
<path d="M226.521 312.94H186.725C182.07 312.94 178.347 309.217 178.347 304.562V264.766C178.347 260.111 182.07 256.388 186.725 256.388H226.521C231.176 256.388 234.899 260.111 234.899 264.766V304.562C234.899 309.217 231.098 312.94 226.521 312.94Z" fill="#49CFAE"/>
</svg>
